<mxfile host="app.diagrams.net" modified="2024-03-02T03:24:35.340Z" agent="Mozilla/5.0 (Windows NT 10.0; Win64; x64) AppleWebKit/537.36 (KHTML, like Gecko) Chrome/122.0.0.0 Safari/537.36 Edg/122.0.0.0" etag="m2-vZRtjVUpY4Wg5N07H" version="24.0.0" type="github">
  <diagram name="Page-1" id="79oRfjms0OCHbmcxYFP_">
    <mxGraphModel dx="1523" dy="876" grid="1" gridSize="10" guides="1" tooltips="1" connect="1" arrows="1" fold="1" page="1" pageScale="1" pageWidth="850" pageHeight="1100" math="0" shadow="0">
      <root>
        <mxCell id="0" />
        <mxCell id="1" parent="0" />
        <mxCell id="weETAlONGDyQjFe2pRTI-1" value="Pembelian Ecommerce" style="text;strokeColor=none;align=left;fillColor=none;html=1;verticalAlign=middle;whiteSpace=wrap;rounded=0;fontSize=23;fontFamily=Tahoma;fontStyle=1" vertex="1" parent="1">
          <mxGeometry x="375" y="60" width="220" height="90" as="geometry" />
        </mxCell>
        <mxCell id="weETAlONGDyQjFe2pRTI-2" value="Penjual" style="rounded=0;whiteSpace=wrap;html=1;" vertex="1" parent="1">
          <mxGeometry x="140" y="250" width="120" height="60" as="geometry" />
        </mxCell>
        <mxCell id="weETAlONGDyQjFe2pRTI-6" value="ID Penjual" style="ellipse;whiteSpace=wrap;html=1;" vertex="1" parent="1">
          <mxGeometry x="117.5" y="340" width="75" height="50" as="geometry" />
        </mxCell>
        <mxCell id="weETAlONGDyQjFe2pRTI-7" value="Nama Penjual" style="ellipse;whiteSpace=wrap;html=1;" vertex="1" parent="1">
          <mxGeometry x="207.5" y="340" width="75" height="50" as="geometry" />
        </mxCell>
        <mxCell id="weETAlONGDyQjFe2pRTI-8" value="Alamat Penjual" style="ellipse;whiteSpace=wrap;html=1;" vertex="1" parent="1">
          <mxGeometry x="30" y="290" width="75" height="50" as="geometry" />
        </mxCell>
        <mxCell id="weETAlONGDyQjFe2pRTI-24" style="edgeStyle=orthogonalEdgeStyle;rounded=1;orthogonalLoop=1;jettySize=auto;html=1;endArrow=none;endFill=0;curved=0;" edge="1" parent="1" source="weETAlONGDyQjFe2pRTI-9" target="weETAlONGDyQjFe2pRTI-2">
          <mxGeometry relative="1" as="geometry" />
        </mxCell>
        <mxCell id="weETAlONGDyQjFe2pRTI-9" value="Provinsi&lt;span style=&quot;color: rgba(0, 0, 0, 0); font-family: monospace; font-size: 0px; text-align: start; text-wrap: nowrap;&quot;&gt;%3CmxGraphModel%3E%3Croot%3E%3CmxCell%20id%3D%220%22%2F%3E%3CmxCell%20id%3D%221%22%20parent%3D%220%22%2F%3E%3CmxCell%20id%3D%222%22%20value%3D%22Alamat%20Penjual%22%20style%3D%22ellipse%3BwhiteSpace%3Dwrap%3Bhtml%3D1%3B%22%20vertex%3D%221%22%20parent%3D%221%22%3E%3CmxGeometry%20x%3D%2242.5%22%20y%3D%22255%22%20width%3D%2275%22%20height%3D%2250%22%20as%3D%22geometry%22%2F%3E%3C%2FmxCell%3E%3C%2Froot%3E%3C%2FmxGraphModel%3E&lt;/span&gt;" style="ellipse;whiteSpace=wrap;html=1;" vertex="1" parent="1">
          <mxGeometry x="30" y="220" width="75" height="50" as="geometry" />
        </mxCell>
        <mxCell id="weETAlONGDyQjFe2pRTI-10" value="KAB Kota" style="ellipse;whiteSpace=wrap;html=1;" vertex="1" parent="1">
          <mxGeometry x="117.5" y="170" width="75" height="50" as="geometry" />
        </mxCell>
        <mxCell id="weETAlONGDyQjFe2pRTI-12" value="KODE Pos" style="ellipse;whiteSpace=wrap;html=1;" vertex="1" parent="1">
          <mxGeometry x="207.5" y="170" width="75" height="50" as="geometry" />
        </mxCell>
        <mxCell id="weETAlONGDyQjFe2pRTI-25" style="edgeStyle=orthogonalEdgeStyle;rounded=1;orthogonalLoop=1;jettySize=auto;html=1;entryX=0.008;entryY=0.617;entryDx=0;entryDy=0;entryPerimeter=0;endArrow=none;endFill=0;curved=0;" edge="1" parent="1" source="weETAlONGDyQjFe2pRTI-8" target="weETAlONGDyQjFe2pRTI-2">
          <mxGeometry relative="1" as="geometry" />
        </mxCell>
        <mxCell id="weETAlONGDyQjFe2pRTI-28" style="edgeStyle=orthogonalEdgeStyle;rounded=1;orthogonalLoop=1;jettySize=auto;html=1;exitX=0.5;exitY=1;exitDx=0;exitDy=0;entryX=0.392;entryY=-0.067;entryDx=0;entryDy=0;entryPerimeter=0;endArrow=none;endFill=0;curved=0;" edge="1" parent="1" source="weETAlONGDyQjFe2pRTI-10" target="weETAlONGDyQjFe2pRTI-2">
          <mxGeometry relative="1" as="geometry" />
        </mxCell>
        <mxCell id="weETAlONGDyQjFe2pRTI-29" style="edgeStyle=orthogonalEdgeStyle;rounded=1;orthogonalLoop=1;jettySize=auto;html=1;exitX=0.5;exitY=1;exitDx=0;exitDy=0;entryX=0.567;entryY=-0.083;entryDx=0;entryDy=0;entryPerimeter=0;endArrow=none;endFill=0;curved=0;" edge="1" parent="1" source="weETAlONGDyQjFe2pRTI-12" target="weETAlONGDyQjFe2pRTI-2">
          <mxGeometry relative="1" as="geometry" />
        </mxCell>
        <mxCell id="weETAlONGDyQjFe2pRTI-30" style="edgeStyle=orthogonalEdgeStyle;rounded=1;orthogonalLoop=1;jettySize=auto;html=1;exitX=0.5;exitY=0;exitDx=0;exitDy=0;entryX=0.592;entryY=1.067;entryDx=0;entryDy=0;entryPerimeter=0;endArrow=none;endFill=0;curved=0;" edge="1" parent="1" source="weETAlONGDyQjFe2pRTI-7" target="weETAlONGDyQjFe2pRTI-2">
          <mxGeometry relative="1" as="geometry" />
        </mxCell>
        <mxCell id="weETAlONGDyQjFe2pRTI-31" style="edgeStyle=orthogonalEdgeStyle;rounded=1;orthogonalLoop=1;jettySize=auto;html=1;exitX=0.5;exitY=0;exitDx=0;exitDy=0;entryX=0.417;entryY=1.05;entryDx=0;entryDy=0;entryPerimeter=0;endArrow=none;endFill=0;curved=0;" edge="1" parent="1" source="weETAlONGDyQjFe2pRTI-6" target="weETAlONGDyQjFe2pRTI-2">
          <mxGeometry relative="1" as="geometry" />
        </mxCell>
        <mxCell id="weETAlONGDyQjFe2pRTI-33" value="Produk" style="rounded=0;whiteSpace=wrap;html=1;" vertex="1" parent="1">
          <mxGeometry x="390" y="250" width="120" height="60" as="geometry" />
        </mxCell>
        <mxCell id="weETAlONGDyQjFe2pRTI-34" value="Nama Produk" style="ellipse;whiteSpace=wrap;html=1;" vertex="1" parent="1">
          <mxGeometry x="350" y="340" width="75" height="50" as="geometry" />
        </mxCell>
        <mxCell id="weETAlONGDyQjFe2pRTI-35" value="Jenis" style="ellipse;whiteSpace=wrap;html=1;" vertex="1" parent="1">
          <mxGeometry x="470" y="340" width="75" height="50" as="geometry" />
        </mxCell>
        <mxCell id="weETAlONGDyQjFe2pRTI-37" style="edgeStyle=orthogonalEdgeStyle;rounded=1;orthogonalLoop=1;jettySize=auto;html=1;endArrow=none;endFill=0;curved=0;" edge="1" parent="1" source="weETAlONGDyQjFe2pRTI-38" target="weETAlONGDyQjFe2pRTI-33">
          <mxGeometry relative="1" as="geometry" />
        </mxCell>
        <mxCell id="weETAlONGDyQjFe2pRTI-38" value="Rating" style="ellipse;whiteSpace=wrap;html=1;" vertex="1" parent="1">
          <mxGeometry x="300" y="255" width="75" height="50" as="geometry" />
        </mxCell>
        <mxCell id="weETAlONGDyQjFe2pRTI-39" value="Harga" style="ellipse;whiteSpace=wrap;html=1;" vertex="1" parent="1">
          <mxGeometry x="367.5" y="170" width="75" height="50" as="geometry" />
        </mxCell>
        <mxCell id="weETAlONGDyQjFe2pRTI-40" value="Stok" style="ellipse;whiteSpace=wrap;html=1;" vertex="1" parent="1">
          <mxGeometry x="457.5" y="170" width="75" height="50" as="geometry" />
        </mxCell>
        <mxCell id="weETAlONGDyQjFe2pRTI-42" style="edgeStyle=orthogonalEdgeStyle;rounded=1;orthogonalLoop=1;jettySize=auto;html=1;exitX=0.5;exitY=1;exitDx=0;exitDy=0;entryX=0.392;entryY=-0.067;entryDx=0;entryDy=0;entryPerimeter=0;endArrow=none;endFill=0;curved=0;" edge="1" parent="1" source="weETAlONGDyQjFe2pRTI-39" target="weETAlONGDyQjFe2pRTI-33">
          <mxGeometry relative="1" as="geometry" />
        </mxCell>
        <mxCell id="weETAlONGDyQjFe2pRTI-43" style="edgeStyle=orthogonalEdgeStyle;rounded=1;orthogonalLoop=1;jettySize=auto;html=1;exitX=0.5;exitY=1;exitDx=0;exitDy=0;entryX=0.567;entryY=-0.083;entryDx=0;entryDy=0;entryPerimeter=0;endArrow=none;endFill=0;curved=0;" edge="1" parent="1" source="weETAlONGDyQjFe2pRTI-40" target="weETAlONGDyQjFe2pRTI-33">
          <mxGeometry relative="1" as="geometry" />
        </mxCell>
        <mxCell id="weETAlONGDyQjFe2pRTI-44" style="edgeStyle=orthogonalEdgeStyle;rounded=1;orthogonalLoop=1;jettySize=auto;html=1;exitX=0.5;exitY=0;exitDx=0;exitDy=0;entryX=0.75;entryY=1;entryDx=0;entryDy=0;endArrow=none;endFill=0;curved=0;" edge="1" parent="1" source="weETAlONGDyQjFe2pRTI-35" target="weETAlONGDyQjFe2pRTI-33">
          <mxGeometry relative="1" as="geometry" />
        </mxCell>
        <mxCell id="weETAlONGDyQjFe2pRTI-45" style="edgeStyle=orthogonalEdgeStyle;rounded=1;orthogonalLoop=1;jettySize=auto;html=1;exitX=0.5;exitY=0;exitDx=0;exitDy=0;entryX=0.25;entryY=1;entryDx=0;entryDy=0;endArrow=none;endFill=0;curved=0;" edge="1" parent="1" source="weETAlONGDyQjFe2pRTI-34" target="weETAlONGDyQjFe2pRTI-33">
          <mxGeometry relative="1" as="geometry" />
        </mxCell>
        <mxCell id="weETAlONGDyQjFe2pRTI-47" style="edgeStyle=orthogonalEdgeStyle;rounded=1;orthogonalLoop=1;jettySize=auto;html=1;exitX=0;exitY=0.5;exitDx=0;exitDy=0;entryX=1;entryY=0.5;entryDx=0;entryDy=0;endArrow=none;endFill=0;curved=0;" edge="1" parent="1" source="weETAlONGDyQjFe2pRTI-46" target="weETAlONGDyQjFe2pRTI-33">
          <mxGeometry relative="1" as="geometry" />
        </mxCell>
        <mxCell id="weETAlONGDyQjFe2pRTI-46" value="Kode Produk" style="ellipse;whiteSpace=wrap;html=1;" vertex="1" parent="1">
          <mxGeometry x="530" y="255" width="75" height="50" as="geometry" />
        </mxCell>
        <mxCell id="weETAlONGDyQjFe2pRTI-48" value="Pembeli" style="rounded=0;whiteSpace=wrap;html=1;" vertex="1" parent="1">
          <mxGeometry x="750" y="250" width="120" height="60" as="geometry" />
        </mxCell>
        <mxCell id="weETAlONGDyQjFe2pRTI-49" value="ID &lt;br&gt;Customer" style="ellipse;whiteSpace=wrap;html=1;" vertex="1" parent="1">
          <mxGeometry x="727.5" y="340" width="75" height="50" as="geometry" />
        </mxCell>
        <mxCell id="weETAlONGDyQjFe2pRTI-50" value="Nama Pembeli" style="ellipse;whiteSpace=wrap;html=1;" vertex="1" parent="1">
          <mxGeometry x="817.5" y="340" width="75" height="50" as="geometry" />
        </mxCell>
        <mxCell id="weETAlONGDyQjFe2pRTI-51" value="Alamat Pembeli" style="ellipse;whiteSpace=wrap;html=1;" vertex="1" parent="1">
          <mxGeometry x="640" y="290" width="75" height="50" as="geometry" />
        </mxCell>
        <mxCell id="weETAlONGDyQjFe2pRTI-52" style="edgeStyle=orthogonalEdgeStyle;rounded=1;orthogonalLoop=1;jettySize=auto;html=1;endArrow=none;endFill=0;curved=0;" edge="1" parent="1" source="weETAlONGDyQjFe2pRTI-53" target="weETAlONGDyQjFe2pRTI-48">
          <mxGeometry relative="1" as="geometry" />
        </mxCell>
        <mxCell id="weETAlONGDyQjFe2pRTI-53" value="Provinsi&lt;span style=&quot;color: rgba(0, 0, 0, 0); font-family: monospace; font-size: 0px; text-align: start; text-wrap: nowrap;&quot;&gt;%3CmxGraphModel%3E%3Croot%3E%3CmxCell%20id%3D%220%22%2F%3E%3CmxCell%20id%3D%221%22%20parent%3D%220%22%2F%3E%3CmxCell%20id%3D%222%22%20value%3D%22Alamat%20Penjual%22%20style%3D%22ellipse%3BwhiteSpace%3Dwrap%3Bhtml%3D1%3B%22%20vertex%3D%221%22%20parent%3D%221%22%3E%3CmxGeometry%20x%3D%2242.5%22%20y%3D%22255%22%20width%3D%2275%22%20height%3D%2250%22%20as%3D%22geometry%22%2F%3E%3C%2FmxCell%3E%3C%2Froot%3E%3C%2FmxGraphModel%3E&lt;/span&gt;" style="ellipse;whiteSpace=wrap;html=1;" vertex="1" parent="1">
          <mxGeometry x="640" y="220" width="75" height="50" as="geometry" />
        </mxCell>
        <mxCell id="weETAlONGDyQjFe2pRTI-54" value="KAB Kota" style="ellipse;whiteSpace=wrap;html=1;" vertex="1" parent="1">
          <mxGeometry x="727.5" y="170" width="75" height="50" as="geometry" />
        </mxCell>
        <mxCell id="weETAlONGDyQjFe2pRTI-55" value="KODE Pos" style="ellipse;whiteSpace=wrap;html=1;" vertex="1" parent="1">
          <mxGeometry x="817.5" y="170" width="75" height="50" as="geometry" />
        </mxCell>
        <mxCell id="weETAlONGDyQjFe2pRTI-56" style="edgeStyle=orthogonalEdgeStyle;rounded=1;orthogonalLoop=1;jettySize=auto;html=1;entryX=0.008;entryY=0.617;entryDx=0;entryDy=0;entryPerimeter=0;endArrow=none;endFill=0;curved=0;" edge="1" parent="1" source="weETAlONGDyQjFe2pRTI-51" target="weETAlONGDyQjFe2pRTI-48">
          <mxGeometry relative="1" as="geometry" />
        </mxCell>
        <mxCell id="weETAlONGDyQjFe2pRTI-57" style="edgeStyle=orthogonalEdgeStyle;rounded=1;orthogonalLoop=1;jettySize=auto;html=1;exitX=0.5;exitY=1;exitDx=0;exitDy=0;entryX=0.392;entryY=-0.067;entryDx=0;entryDy=0;entryPerimeter=0;endArrow=none;endFill=0;curved=0;" edge="1" parent="1" source="weETAlONGDyQjFe2pRTI-54" target="weETAlONGDyQjFe2pRTI-48">
          <mxGeometry relative="1" as="geometry" />
        </mxCell>
        <mxCell id="weETAlONGDyQjFe2pRTI-58" style="edgeStyle=orthogonalEdgeStyle;rounded=1;orthogonalLoop=1;jettySize=auto;html=1;exitX=0.5;exitY=1;exitDx=0;exitDy=0;entryX=0.567;entryY=-0.083;entryDx=0;entryDy=0;entryPerimeter=0;endArrow=none;endFill=0;curved=0;" edge="1" parent="1" source="weETAlONGDyQjFe2pRTI-55" target="weETAlONGDyQjFe2pRTI-48">
          <mxGeometry relative="1" as="geometry" />
        </mxCell>
        <mxCell id="weETAlONGDyQjFe2pRTI-59" style="edgeStyle=orthogonalEdgeStyle;rounded=1;orthogonalLoop=1;jettySize=auto;html=1;exitX=0.5;exitY=0;exitDx=0;exitDy=0;entryX=0.592;entryY=1.067;entryDx=0;entryDy=0;entryPerimeter=0;endArrow=none;endFill=0;curved=0;" edge="1" parent="1" source="weETAlONGDyQjFe2pRTI-50" target="weETAlONGDyQjFe2pRTI-48">
          <mxGeometry relative="1" as="geometry" />
        </mxCell>
        <mxCell id="weETAlONGDyQjFe2pRTI-60" style="edgeStyle=orthogonalEdgeStyle;rounded=1;orthogonalLoop=1;jettySize=auto;html=1;exitX=0.5;exitY=0;exitDx=0;exitDy=0;entryX=0.417;entryY=1.05;entryDx=0;entryDy=0;entryPerimeter=0;endArrow=none;endFill=0;curved=0;" edge="1" parent="1" source="weETAlONGDyQjFe2pRTI-49" target="weETAlONGDyQjFe2pRTI-48">
          <mxGeometry relative="1" as="geometry" />
        </mxCell>
        <mxCell id="weETAlONGDyQjFe2pRTI-62" style="edgeStyle=orthogonalEdgeStyle;rounded=1;orthogonalLoop=1;jettySize=auto;html=1;entryX=0.5;entryY=1;entryDx=0;entryDy=0;endArrow=none;endFill=0;curved=0;startArrow=classic;startFill=1;fontSize=15;" edge="1" parent="1" target="weETAlONGDyQjFe2pRTI-2">
          <mxGeometry relative="1" as="geometry">
            <mxPoint x="282" y="470" as="sourcePoint" />
            <Array as="points">
              <mxPoint x="270" y="470" />
              <mxPoint x="270" y="471" />
              <mxPoint x="200" y="471" />
            </Array>
          </mxGeometry>
        </mxCell>
        <mxCell id="weETAlONGDyQjFe2pRTI-69" value="1" style="edgeLabel;html=1;align=center;verticalAlign=middle;resizable=0;points=[];" vertex="1" connectable="0" parent="weETAlONGDyQjFe2pRTI-62">
          <mxGeometry x="-0.8099" y="-1" relative="1" as="geometry">
            <mxPoint x="-52" y="-50" as="offset" />
          </mxGeometry>
        </mxCell>
        <mxCell id="weETAlONGDyQjFe2pRTI-61" value="Menjual" style="rhombus;whiteSpace=wrap;html=1;" vertex="1" parent="1">
          <mxGeometry x="282.5" y="430" width="80" height="80" as="geometry" />
        </mxCell>
        <mxCell id="weETAlONGDyQjFe2pRTI-65" style="edgeStyle=orthogonalEdgeStyle;rounded=1;orthogonalLoop=1;jettySize=auto;html=1;exitX=1;exitY=0.5;exitDx=0;exitDy=0;entryX=0.5;entryY=1;entryDx=0;entryDy=0;endArrow=classic;endFill=1;curved=0;startArrow=none;startFill=0;" edge="1" parent="1" source="weETAlONGDyQjFe2pRTI-64" target="weETAlONGDyQjFe2pRTI-48">
          <mxGeometry relative="1" as="geometry" />
        </mxCell>
        <mxCell id="weETAlONGDyQjFe2pRTI-75" value="M" style="edgeLabel;html=1;align=center;verticalAlign=middle;resizable=0;points=[];" vertex="1" connectable="0" parent="weETAlONGDyQjFe2pRTI-65">
          <mxGeometry x="0.2839" y="1" relative="1" as="geometry">
            <mxPoint x="-9" as="offset" />
          </mxGeometry>
        </mxCell>
        <mxCell id="weETAlONGDyQjFe2pRTI-66" style="edgeStyle=orthogonalEdgeStyle;rounded=1;orthogonalLoop=1;jettySize=auto;html=1;exitX=0;exitY=0.5;exitDx=0;exitDy=0;curved=0;endArrow=classic;endFill=1;startArrow=none;startFill=0;" edge="1" parent="1" source="weETAlONGDyQjFe2pRTI-64">
          <mxGeometry relative="1" as="geometry">
            <mxPoint x="460" y="310" as="targetPoint" />
          </mxGeometry>
        </mxCell>
        <mxCell id="weETAlONGDyQjFe2pRTI-74" value="M" style="edgeLabel;html=1;align=center;verticalAlign=middle;resizable=0;points=[];" vertex="1" connectable="0" parent="weETAlONGDyQjFe2pRTI-66">
          <mxGeometry x="0.2129" y="1" relative="1" as="geometry">
            <mxPoint x="11" as="offset" />
          </mxGeometry>
        </mxCell>
        <mxCell id="weETAlONGDyQjFe2pRTI-79" style="edgeStyle=orthogonalEdgeStyle;rounded=0;orthogonalLoop=1;jettySize=auto;html=1;exitX=0.5;exitY=1;exitDx=0;exitDy=0;" edge="1" parent="1" source="weETAlONGDyQjFe2pRTI-64" target="weETAlONGDyQjFe2pRTI-76">
          <mxGeometry relative="1" as="geometry" />
        </mxCell>
        <mxCell id="weETAlONGDyQjFe2pRTI-64" value="Membeli" style="rhombus;whiteSpace=wrap;html=1;" vertex="1" parent="1">
          <mxGeometry x="580" y="430" width="80" height="80" as="geometry" />
        </mxCell>
        <mxCell id="weETAlONGDyQjFe2pRTI-67" style="edgeStyle=orthogonalEdgeStyle;rounded=1;orthogonalLoop=1;jettySize=auto;html=1;exitX=1;exitY=0.5;exitDx=0;exitDy=0;endArrow=classic;endFill=1;curved=0;" edge="1" parent="1" source="weETAlONGDyQjFe2pRTI-61">
          <mxGeometry relative="1" as="geometry">
            <mxPoint x="440" y="310" as="targetPoint" />
          </mxGeometry>
        </mxCell>
        <mxCell id="weETAlONGDyQjFe2pRTI-71" value="M" style="edgeLabel;html=1;align=center;verticalAlign=middle;resizable=0;points=[];" vertex="1" connectable="0" parent="weETAlONGDyQjFe2pRTI-67">
          <mxGeometry x="-0.8782" y="-1" relative="1" as="geometry">
            <mxPoint x="49" y="-51" as="offset" />
          </mxGeometry>
        </mxCell>
        <mxCell id="weETAlONGDyQjFe2pRTI-76" value="Membeli" style="rounded=0;whiteSpace=wrap;html=1;" vertex="1" parent="1">
          <mxGeometry x="560" y="550" width="120" height="60" as="geometry" />
        </mxCell>
        <mxCell id="weETAlONGDyQjFe2pRTI-77" value="ID&lt;br&gt;Customer" style="ellipse;whiteSpace=wrap;html=1;" vertex="1" parent="1">
          <mxGeometry x="640" y="650" width="75" height="50" as="geometry" />
        </mxCell>
        <mxCell id="weETAlONGDyQjFe2pRTI-78" value="Kode Produk" style="ellipse;whiteSpace=wrap;html=1;" vertex="1" parent="1">
          <mxGeometry x="520" y="650" width="75" height="50" as="geometry" />
        </mxCell>
        <mxCell id="weETAlONGDyQjFe2pRTI-80" style="edgeStyle=orthogonalEdgeStyle;rounded=1;orthogonalLoop=1;jettySize=auto;html=1;exitX=1;exitY=0;exitDx=0;exitDy=0;entryX=0.449;entryY=0.99;entryDx=0;entryDy=0;entryPerimeter=0;curved=0;endArrow=none;endFill=0;" edge="1" parent="1" source="weETAlONGDyQjFe2pRTI-78" target="weETAlONGDyQjFe2pRTI-76">
          <mxGeometry relative="1" as="geometry" />
        </mxCell>
        <mxCell id="weETAlONGDyQjFe2pRTI-83" style="edgeStyle=orthogonalEdgeStyle;rounded=1;orthogonalLoop=1;jettySize=auto;html=1;exitX=0;exitY=0;exitDx=0;exitDy=0;entryX=0.533;entryY=1;entryDx=0;entryDy=0;entryPerimeter=0;curved=0;endArrow=none;endFill=0;" edge="1" parent="1" source="weETAlONGDyQjFe2pRTI-77" target="weETAlONGDyQjFe2pRTI-76">
          <mxGeometry relative="1" as="geometry" />
        </mxCell>
        <mxCell id="weETAlONGDyQjFe2pRTI-85" value="BIYOSKOP 21&lt;br&gt;&lt;br&gt;&lt;span style=&quot;font-weight: normal;&quot;&gt;&lt;font style=&quot;font-size: 20px;&quot;&gt;Bioskop di daerah tertentu punya banyak teater, memutar sejumlah film dengan harga atau tipe yang berbeda.&lt;/font&gt;&lt;/span&gt;" style="text;strokeColor=none;align=left;fillColor=none;html=1;verticalAlign=middle;whiteSpace=wrap;rounded=0;fontSize=23;fontFamily=Tahoma;fontStyle=1" vertex="1" parent="1">
          <mxGeometry x="45" y="730" width="330" height="230" as="geometry" />
        </mxCell>
        <mxCell id="weETAlONGDyQjFe2pRTI-86" value="Kasir" style="rounded=0;whiteSpace=wrap;html=1;" vertex="1" parent="1">
          <mxGeometry x="150" y="1100" width="120" height="60" as="geometry" />
        </mxCell>
        <mxCell id="weETAlONGDyQjFe2pRTI-93" value="" style="edgeStyle=orthogonalEdgeStyle;rounded=1;orthogonalLoop=1;jettySize=auto;html=1;curved=0;endArrow=none;endFill=0;" edge="1" parent="1" source="weETAlONGDyQjFe2pRTI-87" target="weETAlONGDyQjFe2pRTI-86">
          <mxGeometry relative="1" as="geometry">
            <Array as="points">
              <mxPoint x="270" y="1180" />
              <mxPoint x="220" y="1180" />
            </Array>
          </mxGeometry>
        </mxCell>
        <mxCell id="weETAlONGDyQjFe2pRTI-87" value="Nama Kasir" style="ellipse;whiteSpace=wrap;html=1;" vertex="1" parent="1">
          <mxGeometry x="225" y="1200" width="90" height="60" as="geometry" />
        </mxCell>
        <mxCell id="weETAlONGDyQjFe2pRTI-88" value="ID Kasir" style="ellipse;whiteSpace=wrap;html=1;" vertex="1" parent="1">
          <mxGeometry x="105" y="1200" width="90" height="60" as="geometry" />
        </mxCell>
        <mxCell id="weETAlONGDyQjFe2pRTI-92" style="edgeStyle=orthogonalEdgeStyle;rounded=1;orthogonalLoop=1;jettySize=auto;html=1;exitX=0.5;exitY=0;exitDx=0;exitDy=0;entryX=0.417;entryY=1;entryDx=0;entryDy=0;entryPerimeter=0;curved=0;endArrow=none;endFill=0;" edge="1" parent="1" source="weETAlONGDyQjFe2pRTI-88">
          <mxGeometry relative="1" as="geometry">
            <mxPoint x="200.03999999999996" y="1160" as="targetPoint" />
          </mxGeometry>
        </mxCell>
        <mxCell id="weETAlONGDyQjFe2pRTI-95" value="Pembeli" style="rounded=0;whiteSpace=wrap;html=1;" vertex="1" parent="1">
          <mxGeometry x="640" y="1100" width="120" height="60" as="geometry" />
        </mxCell>
        <mxCell id="weETAlONGDyQjFe2pRTI-96" value="" style="edgeStyle=orthogonalEdgeStyle;rounded=1;orthogonalLoop=1;jettySize=auto;html=1;curved=0;endArrow=none;endFill=0;" edge="1" parent="1" source="weETAlONGDyQjFe2pRTI-97" target="weETAlONGDyQjFe2pRTI-95">
          <mxGeometry relative="1" as="geometry">
            <Array as="points">
              <mxPoint x="760" y="1180" />
              <mxPoint x="710" y="1180" />
            </Array>
          </mxGeometry>
        </mxCell>
        <mxCell id="weETAlONGDyQjFe2pRTI-97" value="Nama Customer" style="ellipse;whiteSpace=wrap;html=1;" vertex="1" parent="1">
          <mxGeometry x="715" y="1200" width="90" height="60" as="geometry" />
        </mxCell>
        <mxCell id="weETAlONGDyQjFe2pRTI-98" value="ID Customer" style="ellipse;whiteSpace=wrap;html=1;" vertex="1" parent="1">
          <mxGeometry x="595" y="1200" width="90" height="60" as="geometry" />
        </mxCell>
        <mxCell id="weETAlONGDyQjFe2pRTI-99" style="edgeStyle=orthogonalEdgeStyle;rounded=1;orthogonalLoop=1;jettySize=auto;html=1;exitX=0.5;exitY=0;exitDx=0;exitDy=0;entryX=0.417;entryY=1;entryDx=0;entryDy=0;entryPerimeter=0;curved=0;endArrow=none;endFill=0;" edge="1" parent="1" source="weETAlONGDyQjFe2pRTI-98" target="weETAlONGDyQjFe2pRTI-95">
          <mxGeometry relative="1" as="geometry" />
        </mxCell>
        <mxCell id="weETAlONGDyQjFe2pRTI-101" value="FIlm" style="rounded=0;whiteSpace=wrap;html=1;" vertex="1" parent="1">
          <mxGeometry x="400" y="1100" width="120" height="60" as="geometry" />
        </mxCell>
        <mxCell id="weETAlONGDyQjFe2pRTI-106" value="ID Film" style="ellipse;whiteSpace=wrap;html=1;" vertex="1" parent="1">
          <mxGeometry x="490" y="1200" width="90" height="60" as="geometry" />
        </mxCell>
        <mxCell id="weETAlONGDyQjFe2pRTI-107" value="Nama Film" style="ellipse;whiteSpace=wrap;html=1;" vertex="1" parent="1">
          <mxGeometry x="355" y="1200" width="90" height="60" as="geometry" />
        </mxCell>
        <mxCell id="weETAlONGDyQjFe2pRTI-108" style="edgeStyle=orthogonalEdgeStyle;rounded=1;orthogonalLoop=1;jettySize=auto;html=1;exitX=0.5;exitY=0;exitDx=0;exitDy=0;curved=0;endArrow=none;endFill=0;" edge="1" parent="1" source="weETAlONGDyQjFe2pRTI-107" target="weETAlONGDyQjFe2pRTI-101">
          <mxGeometry relative="1" as="geometry">
            <mxPoint x="450" y="1160" as="targetPoint" />
            <Array as="points">
              <mxPoint x="400" y="1180" />
              <mxPoint x="450" y="1180" />
            </Array>
          </mxGeometry>
        </mxCell>
        <mxCell id="weETAlONGDyQjFe2pRTI-109" style="edgeStyle=orthogonalEdgeStyle;rounded=1;orthogonalLoop=1;jettySize=auto;html=1;exitX=0.5;exitY=0;exitDx=0;exitDy=0;curved=0;endArrow=none;endFill=0;" edge="1" parent="1" source="weETAlONGDyQjFe2pRTI-106">
          <mxGeometry relative="1" as="geometry">
            <mxPoint x="480" y="1160" as="targetPoint" />
            <Array as="points">
              <mxPoint x="520" y="1180" />
              <mxPoint x="480" y="1180" />
              <mxPoint x="480" y="1162" />
              <mxPoint x="481" y="1162" />
            </Array>
          </mxGeometry>
        </mxCell>
        <mxCell id="weETAlONGDyQjFe2pRTI-110" value="Harga Film" style="ellipse;whiteSpace=wrap;html=1;" vertex="1" parent="1">
          <mxGeometry x="330" y="1020" width="90" height="60" as="geometry" />
        </mxCell>
        <mxCell id="weETAlONGDyQjFe2pRTI-111" style="edgeStyle=orthogonalEdgeStyle;rounded=1;orthogonalLoop=1;jettySize=auto;html=1;exitX=1;exitY=0.5;exitDx=0;exitDy=0;entryX=0.344;entryY=-0.056;entryDx=0;entryDy=0;entryPerimeter=0;endArrow=none;endFill=0;curved=0;" edge="1" parent="1" source="weETAlONGDyQjFe2pRTI-110" target="weETAlONGDyQjFe2pRTI-101">
          <mxGeometry relative="1" as="geometry" />
        </mxCell>
        <mxCell id="weETAlONGDyQjFe2pRTI-113" style="edgeStyle=orthogonalEdgeStyle;rounded=1;orthogonalLoop=1;jettySize=auto;html=1;exitX=1;exitY=1;exitDx=0;exitDy=0;endArrow=none;endFill=0;curved=0;" edge="1" parent="1" source="weETAlONGDyQjFe2pRTI-112" target="weETAlONGDyQjFe2pRTI-101">
          <mxGeometry relative="1" as="geometry">
            <Array as="points">
              <mxPoint x="444" y="1010" />
              <mxPoint x="460" y="1010" />
            </Array>
          </mxGeometry>
        </mxCell>
        <mxCell id="weETAlONGDyQjFe2pRTI-112" value="Genre Film" style="ellipse;whiteSpace=wrap;html=1;" vertex="1" parent="1">
          <mxGeometry x="367.5" y="950" width="90" height="60" as="geometry" />
        </mxCell>
        <mxCell id="weETAlONGDyQjFe2pRTI-114" value="Rating Film" style="ellipse;whiteSpace=wrap;html=1;" vertex="1" parent="1">
          <mxGeometry x="475" y="950" width="90" height="60" as="geometry" />
        </mxCell>
        <mxCell id="weETAlONGDyQjFe2pRTI-116" style="edgeStyle=orthogonalEdgeStyle;rounded=1;orthogonalLoop=1;jettySize=auto;html=1;exitX=0;exitY=1;exitDx=0;exitDy=0;entryX=0.648;entryY=-0.036;entryDx=0;entryDy=0;entryPerimeter=0;endArrow=none;endFill=0;curved=0;" edge="1" parent="1" source="weETAlONGDyQjFe2pRTI-114" target="weETAlONGDyQjFe2pRTI-101">
          <mxGeometry relative="1" as="geometry">
            <Array as="points">
              <mxPoint x="490" y="1001" />
              <mxPoint x="490" y="1010" />
              <mxPoint x="478" y="1010" />
            </Array>
          </mxGeometry>
        </mxCell>
        <mxCell id="weETAlONGDyQjFe2pRTI-119" style="edgeStyle=orthogonalEdgeStyle;rounded=1;orthogonalLoop=1;jettySize=auto;html=1;curved=0;endArrow=none;endFill=0;" edge="1" parent="1" source="weETAlONGDyQjFe2pRTI-117" target="weETAlONGDyQjFe2pRTI-101">
          <mxGeometry relative="1" as="geometry">
            <mxPoint x="500" y="1090" as="targetPoint" />
            <Array as="points">
              <mxPoint x="493" y="1050" />
            </Array>
          </mxGeometry>
        </mxCell>
        <mxCell id="weETAlONGDyQjFe2pRTI-117" value="Jadwal Film" style="ellipse;whiteSpace=wrap;html=1;" vertex="1" parent="1">
          <mxGeometry x="512.5" y="1020" width="90" height="60" as="geometry" />
        </mxCell>
        <mxCell id="weETAlONGDyQjFe2pRTI-121" style="edgeStyle=orthogonalEdgeStyle;rounded=1;orthogonalLoop=1;jettySize=auto;html=1;exitX=0;exitY=0.5;exitDx=0;exitDy=0;entryX=0.5;entryY=1;entryDx=0;entryDy=0;curved=0;endArrow=none;endFill=0;startArrow=classic;startFill=1;" edge="1" parent="1" source="weETAlONGDyQjFe2pRTI-120" target="weETAlONGDyQjFe2pRTI-86">
          <mxGeometry relative="1" as="geometry" />
        </mxCell>
        <mxCell id="weETAlONGDyQjFe2pRTI-122" style="edgeStyle=orthogonalEdgeStyle;rounded=1;orthogonalLoop=1;jettySize=auto;html=1;entryX=0.5;entryY=1;entryDx=0;entryDy=0;endArrow=classic;endFill=1;startArrow=none;startFill=0;curved=0;" edge="1" parent="1" source="weETAlONGDyQjFe2pRTI-120" target="weETAlONGDyQjFe2pRTI-101">
          <mxGeometry relative="1" as="geometry" />
        </mxCell>
        <mxCell id="weETAlONGDyQjFe2pRTI-141" value="" style="edgeStyle=orthogonalEdgeStyle;rounded=0;orthogonalLoop=1;jettySize=auto;html=1;" edge="1" parent="1" source="weETAlONGDyQjFe2pRTI-120" target="weETAlONGDyQjFe2pRTI-136">
          <mxGeometry relative="1" as="geometry" />
        </mxCell>
        <mxCell id="weETAlONGDyQjFe2pRTI-120" value="Menjual" style="rhombus;whiteSpace=wrap;html=1;" vertex="1" parent="1">
          <mxGeometry x="295" y="1320" width="80" height="80" as="geometry" />
        </mxCell>
        <mxCell id="weETAlONGDyQjFe2pRTI-127" style="edgeStyle=orthogonalEdgeStyle;rounded=0;orthogonalLoop=1;jettySize=auto;html=1;exitX=1;exitY=0.5;exitDx=0;exitDy=0;entryX=0.5;entryY=1;entryDx=0;entryDy=0;endArrow=none;endFill=0;startArrow=classic;startFill=1;" edge="1" parent="1" source="weETAlONGDyQjFe2pRTI-123" target="weETAlONGDyQjFe2pRTI-95">
          <mxGeometry relative="1" as="geometry" />
        </mxCell>
        <mxCell id="weETAlONGDyQjFe2pRTI-135" value="" style="edgeStyle=orthogonalEdgeStyle;rounded=0;orthogonalLoop=1;jettySize=auto;html=1;" edge="1" parent="1" source="weETAlONGDyQjFe2pRTI-123" target="weETAlONGDyQjFe2pRTI-129">
          <mxGeometry relative="1" as="geometry" />
        </mxCell>
        <mxCell id="weETAlONGDyQjFe2pRTI-123" value="Membeli" style="rhombus;whiteSpace=wrap;html=1;" vertex="1" parent="1">
          <mxGeometry x="545" y="1320" width="80" height="80" as="geometry" />
        </mxCell>
        <mxCell id="weETAlONGDyQjFe2pRTI-124" style="edgeStyle=orthogonalEdgeStyle;rounded=1;orthogonalLoop=1;jettySize=auto;html=1;exitX=0;exitY=0.5;exitDx=0;exitDy=0;entryX=0.583;entryY=1;entryDx=0;entryDy=0;entryPerimeter=0;curved=0;endArrow=none;endFill=0;startArrow=classic;startFill=1;" edge="1" parent="1" source="weETAlONGDyQjFe2pRTI-123" target="weETAlONGDyQjFe2pRTI-101">
          <mxGeometry relative="1" as="geometry" />
        </mxCell>
        <mxCell id="weETAlONGDyQjFe2pRTI-129" value="Membeli" style="rounded=0;whiteSpace=wrap;html=1;" vertex="1" parent="1">
          <mxGeometry x="525" y="1440" width="120" height="60" as="geometry" />
        </mxCell>
        <mxCell id="weETAlONGDyQjFe2pRTI-130" value="ID&lt;br&gt;Customer" style="ellipse;whiteSpace=wrap;html=1;" vertex="1" parent="1">
          <mxGeometry x="607.5" y="1540" width="75" height="50" as="geometry" />
        </mxCell>
        <mxCell id="weETAlONGDyQjFe2pRTI-131" value="ID Film" style="ellipse;whiteSpace=wrap;html=1;" vertex="1" parent="1">
          <mxGeometry x="487.5" y="1540" width="75" height="50" as="geometry" />
        </mxCell>
        <mxCell id="weETAlONGDyQjFe2pRTI-132" style="edgeStyle=orthogonalEdgeStyle;rounded=1;orthogonalLoop=1;jettySize=auto;html=1;exitX=1;exitY=0;exitDx=0;exitDy=0;entryX=0.449;entryY=0.99;entryDx=0;entryDy=0;entryPerimeter=0;curved=0;endArrow=none;endFill=0;" edge="1" parent="1" source="weETAlONGDyQjFe2pRTI-131" target="weETAlONGDyQjFe2pRTI-129">
          <mxGeometry relative="1" as="geometry" />
        </mxCell>
        <mxCell id="weETAlONGDyQjFe2pRTI-133" style="edgeStyle=orthogonalEdgeStyle;rounded=1;orthogonalLoop=1;jettySize=auto;html=1;exitX=0;exitY=0;exitDx=0;exitDy=0;entryX=0.533;entryY=1;entryDx=0;entryDy=0;entryPerimeter=0;curved=0;endArrow=none;endFill=0;" edge="1" parent="1" source="weETAlONGDyQjFe2pRTI-130" target="weETAlONGDyQjFe2pRTI-129">
          <mxGeometry relative="1" as="geometry" />
        </mxCell>
        <mxCell id="weETAlONGDyQjFe2pRTI-136" value="Menjual" style="rounded=0;whiteSpace=wrap;html=1;" vertex="1" parent="1">
          <mxGeometry x="275" y="1440" width="120" height="60" as="geometry" />
        </mxCell>
        <mxCell id="weETAlONGDyQjFe2pRTI-137" value="Harga Ticket" style="ellipse;whiteSpace=wrap;html=1;" vertex="1" parent="1">
          <mxGeometry x="357.5" y="1540" width="75" height="50" as="geometry" />
        </mxCell>
        <mxCell id="weETAlONGDyQjFe2pRTI-138" value="ID Film" style="ellipse;whiteSpace=wrap;html=1;" vertex="1" parent="1">
          <mxGeometry x="237.5" y="1540" width="75" height="50" as="geometry" />
        </mxCell>
        <mxCell id="weETAlONGDyQjFe2pRTI-139" style="edgeStyle=orthogonalEdgeStyle;rounded=1;orthogonalLoop=1;jettySize=auto;html=1;exitX=1;exitY=0;exitDx=0;exitDy=0;entryX=0.449;entryY=0.99;entryDx=0;entryDy=0;entryPerimeter=0;curved=0;endArrow=none;endFill=0;" edge="1" parent="1" source="weETAlONGDyQjFe2pRTI-138" target="weETAlONGDyQjFe2pRTI-136">
          <mxGeometry relative="1" as="geometry" />
        </mxCell>
        <mxCell id="weETAlONGDyQjFe2pRTI-140" style="edgeStyle=orthogonalEdgeStyle;rounded=1;orthogonalLoop=1;jettySize=auto;html=1;exitX=0;exitY=0;exitDx=0;exitDy=0;entryX=0.533;entryY=1;entryDx=0;entryDy=0;entryPerimeter=0;curved=0;endArrow=none;endFill=0;" edge="1" parent="1" source="weETAlONGDyQjFe2pRTI-137" target="weETAlONGDyQjFe2pRTI-136">
          <mxGeometry relative="1" as="geometry" />
        </mxCell>
      </root>
    </mxGraphModel>
  </diagram>
</mxfile>
